<svg width="97" height="96" viewBox="0 0 97 96" fill="none" xmlns="http://www.w3.org/2000/svg">
<path d="M29.1877 55.5557C27.3923 55.5557 25.9321 59.3618 25.9321 64.0697C25.8766 66.3017 26.2729 68.5218 27.0971 70.5968C26.7568 69.1102 26.5882 67.5895 26.5944 66.0645C26.5944 61.3567 28.0546 57.5505 29.85 57.5505C30.6479 57.5505 31.374 58.3006 31.9406 59.5294C31.3661 57.1436 30.3527 55.5557 29.1877 55.5557Z" fill="white"/>
<path d="M73.4747 29.2476C74.2726 29.8142 76.1158 31.418 76.1158 31.418L75.9961 31.0031C76.3671 31.0292 76.7394 30.9775 77.0893 30.8515C77.4165 30.668 77.0893 27.8193 75.8206 26.8618C74.7041 26.5024 73.5082 26.4692 72.3735 26.7661C71.8548 27.0932 72.19 28.1784 72.19 28.1784C72.5822 28.5759 73.0125 28.9341 73.4747 29.2476Z" fill="white"/>
<path d="M96.9784 52.6113C96.8827 49.6908 95.7099 46.4113 95.7099 45.8448C90.3565 52.0288 43.4523 52.9065 38.3941 49.1403C34.5087 46.2437 34.3093 44.4484 31.9078 42.0466C27.7751 37.9133 6.17 39.9161 2.95477 40.0836C3.21805 39.2139 3.49729 38.3202 3.75259 37.5462C9.86393 36.7483 19.1347 35.4875 24.8231 35.3279C26.0634 35.2394 27.3086 35.4062 28.4819 35.8179C29.6551 36.2296 30.7315 36.8776 31.6445 37.7217C32.5062 38.6474 43.8832 38.5197 51.7497 39.0942C51.7497 39.0942 38.7212 39.3256 32.9131 39.158C33.0886 39.3974 33.2561 39.6288 33.3998 39.8443C33.3998 39.8443 37.1814 45.5495 38.3862 46.2757C49.7552 53.1299 94.2339 49.7387 94.8003 43.5866C94.8721 42.8365 94.8961 41.4242 94.8961 41.4242C94.4254 43.1717 89.3831 44.2808 88.322 44.1531L87.213 39.1181C90.8431 38.6474 92.5744 38.001 92.2553 37.0116C92.2553 37.0116 92.4627 35.312 88.7209 34.1071C86.495 33.3969 79.9448 32.3117 75.8201 31.8489C69.5997 31.0865 63.3382 30.7081 57.0712 30.7158C49.093 30.7158 34.3412 31.0669 28.7963 31.6973C25.7327 32.1601 25.0705 24.6994 24.504 22.9758C22.9881 18.3717 56.2495 19.3931 59.8397 20.4145C61.6826 20.9251 68.2807 24.6675 68.2807 24.6675C66.6056 23.0014 64.6607 21.6308 62.5283 20.6139C60.0237 19.3278 57.2678 18.606 54.4544 18.4994C54.4389 18.2506 54.3424 18.0137 54.1796 17.8249C54.0168 17.6362 53.7966 17.5059 53.5528 17.4541C50.5008 16.9969 47.4071 16.8845 44.33 17.119C43.1151 17.2218 41.9128 17.4409 40.7397 17.7733C40.7397 17.7733 48.8137 17.5738 50.7604 17.9728C51.0898 18.0251 51.4033 18.1505 51.6779 18.3398C48.4388 18.2201 44.0348 18.252 37.7559 18.4675C32.8094 18.643 28.8123 18.9064 25.5412 19.2654C24.9798 18.5567 24.2093 18.0429 23.3392 17.7972C20.8101 17.3983 16.422 18.5952 14.1642 19.7203L11.8665 20.8453C11.8665 20.8453 18.5522 18.9143 21.2489 19.3931C21.5758 19.4319 21.8925 19.5321 22.1823 19.6883C15.3131 20.6858 12.401 22.0822 10.0793 23.678C6.47317 26.1596 4.49457 34.3624 3.6409 35.4237C2.78722 36.4849 2.15694 39.8123 2.08514 40.3789C2.04525 40.706 1.95749 41.895 1.88568 42.8365C1.68623 43.8499 1.51868 44.7596 1.51868 44.7596C2.02929 44.0494 5.68333 42.4535 7.21515 48.837C7.64598 50.6324 7.92522 57.6144 9.32141 60.5588C8.6273 60.0082 8.12467 58.8113 7.638 56.9361C6.75241 53.7843 5.37218 46.7863 3.64888 45.9645C2.30853 45.3261 1.67027 45.6134 1.38305 46.1719C1.09584 46.7305 0.457577 49.8903 1.8777 56.2898C1.8777 56.2898 1.8777 52.5395 3.3457 51.6697C2.63564 53.2656 2.16492 56.1781 2.16492 59.5454C2.16492 64.5883 3.15422 68.1472 4.34298 68.6898C5.99448 69.4398 11.0686 69.0967 12.0579 68.602C13.0472 68.1073 13.2627 64.7799 13.2627 64.7799C13.2627 64.7799 15.2492 63.9101 15.9753 63.6548C19.8687 64.2373 23.9535 64.7001 24.4721 64.74C24.4721 64.8118 24.4721 64.8916 24.4721 64.9714C24.4721 72.2007 26.6023 78.1294 29.3149 78.7677C31.5807 79.6135 39.8701 78.1852 41.003 77.4352C42.1359 76.6851 43.3965 70.5968 43.6518 69.5116C48.0398 67.6365 73.8973 65.7773 76.4344 65.7214H77.2322C77.328 66.0885 77.4716 66.5752 77.695 67.2136C78.3253 69.0169 80.4874 72.3443 82.2825 72.8869C83.9074 73.4599 85.6456 73.6365 87.3525 73.4019C89.0594 73.1674 90.6856 72.5285 92.0957 71.5384C94.7285 69.7829 95.287 66.264 95.3828 63.7744C94.8746 64.0264 94.3392 64.2192 93.7871 64.349C94.3004 64.1124 94.7614 63.776 95.1434 63.3595C95.4207 63.1563 95.6564 62.9017 95.8375 62.6095C96.5077 61.2929 97.0742 55.5397 96.9784 52.6113ZM42.487 45.8208C38.3383 44.975 37.3969 42.4296 36.8304 41.6715C36.5796 41.2168 36.407 40.7232 36.3198 40.2113C40.4047 40.6582 49.085 40.2113 49.6993 40.2113H50.7684L52.0609 46.2916C49.5078 46.3634 45.2155 46.3874 42.487 45.8208ZM55.1245 40.2353C61.8422 40.2353 72.6128 40.0836 79.1949 39.7246C80.982 39.6208 82.5856 39.5171 84.0217 39.3974C84.1568 39.5317 84.2533 39.6998 84.301 39.8842C84.4047 40.2512 84.5882 40.8497 84.7797 41.48L79.897 41.9109C75.0303 42.3338 60.0152 42.3259 55.7947 42.3099L55.1245 40.2353ZM85.2823 45.5814C84.2212 46.2916 63.741 47.688 57.2388 46.898L56.7521 45.358L57.8611 45.4298C61.9699 45.7011 81.3969 44.1212 85.3621 43.834C85.5137 44.6878 85.5695 45.4059 85.2663 45.5974L85.2823 45.5814ZM71.7751 32.4155C77.2003 32.974 82.0591 33.4608 84.5962 34.1949C91.8484 36.2695 73.4984 36.5408 68.8471 36.4052C65.8234 33.8757 54.2549 32.3357 38.9925 32.2798C52.755 31.7851 66.5893 31.8808 71.7751 32.4155ZM9.5448 26.6304C11.76 24.6597 14.6222 23.5721 17.5869 23.5743C20.6904 23.5743 24.52 29.7344 23.6344 32.9581C22.2701 33.1176 21.201 33.2693 21.1611 32.7586C21.1611 32.6309 21.1611 32.3277 21.1611 31.9606C21.1611 31.809 15.8955 31.6893 15.8875 31.5218C16.9566 31.3223 20.0123 31.059 21.1531 31.027C21.1053 30.0137 20.9058 28.9045 20.2117 28.6332C18.991 28.2103 14.4754 28.7848 14.1323 29.2955C13.6616 29.9977 12.6244 32.8304 13.5658 33.8677C14.2773 34.1989 15.0551 34.3626 15.8396 34.3465C10.3426 34.921 5.64344 34.9609 5.46792 33.4687C6.29765 31.4978 7.53428 28.5774 9.5448 26.6304ZM4.1914 66.6869C3.21805 66.6869 2.42023 63.6388 2.42023 59.8805C2.42023 56.1222 3.23401 53.0661 4.1914 53.0661C5.14879 53.0661 5.97852 56.0983 5.97852 59.8805C5.97852 63.6627 5.18868 66.6869 4.1914 66.6869ZM7.38269 46.5709L21.4643 47.4566L21.568 48.9168L7.38269 46.5709ZM12.9675 61.4923L22.0627 61.3088L22.9881 60.471C22.9881 60.471 23.5067 62.8648 23.6264 63.0723C23.7461 63.2797 12.9675 61.4923 12.9675 61.4923ZM29.7218 75.7196C27.4879 75.7196 25.6688 70.8841 25.6688 64.9235C25.6688 58.9629 27.4081 54.1274 29.642 54.1274C31.5967 54.1274 33.7029 58.8591 33.7029 64.9235C33.7029 70.9878 31.8839 75.7196 29.642 75.7196H29.7218ZM32.7376 50.9835C31.8919 48.5897 30.8068 46.8103 28.6846 46.3156C22.8685 44.9591 22.4536 49.1722 22.8525 56.7526C22.8525 56.7526 21.1212 48.1987 23.0201 45.7011C23.5543 44.8748 24.2833 44.1923 25.143 43.7137C26.0028 43.2351 26.9669 42.975 27.9506 42.9562C29.9053 43.0121 31.6445 44.2489 32.7376 46.5948C33.9901 49.3397 37.2373 62.2185 37.2373 62.2185C35.522 58.4921 33.2242 52.5794 32.6578 50.9835H32.7376ZM43.7475 59.6012C45.1566 59.2249 46.5291 58.7228 47.8484 58.1011C49.3802 57.2313 49.444 54.9094 49.444 54.3747C49.444 53.8401 44.8725 53.7683 42.2636 53.6885C41.8642 53.3816 41.4857 53.0484 41.1307 52.6911C41.1307 52.6911 49.6674 52.7789 51.5024 52.8666C53.3374 52.9544 53.2656 53.7444 51.5024 56.9122C49.8509 59.7848 46.4761 59.7608 43.6678 59.6012H43.7475ZM88.9443 62.6095C79.522 63.4074 61.0205 64.8995 56.792 65.0033C54.7815 65.0033 52.1008 65.0432 49.3961 65.0033L67.8658 62.7451L52.2364 62.9286L73.8255 60.2875L51.2631 60.5109L81.2373 57.5346L53.0901 57.8059C57.3664 55.8908 88.1944 55.1487 89.5507 56.4175C90.173 57 90.7474 59.4815 91.0905 61.2051C91.3537 62.2025 89.8778 62.5536 88.8645 62.6095H88.9443ZM96.7151 54.3588C96.5875 56.0504 94.8323 56.5132 94.1142 55.7153C93.6196 55.1567 91.6011 50.768 92.4468 50.776C95.1354 50.8159 95.1913 50.2334 96.4359 49.5871C96.396 49.5871 96.7391 53.9917 96.6353 54.3588H96.7151Z" fill="white"/>
</svg>
