<svg width="1280" height="97" viewBox="0 0 1280 97" fill="none" xmlns="http://www.w3.org/2000/svg">
<path fill-rule="evenodd" clip-rule="evenodd" d="M1280 0.5C1280 0.223858 1279.78 0 1279.5 0H0.5C0.223858 0 0 0.223858 0 0.5C0 0.776142 0.22386 1 0.500002 1H576C584.837 1 592 8.16344 592 17V81C592 89.8366 599.163 97 608 97H672C680.837 97 688 89.8366 688 81V17C688 8.16344 695.163 1 704 1H1279.5C1279.78 1 1280 0.776142 1280 0.5Z" fill="#E5E5E5"/>
<path fill-rule="evenodd" clip-rule="evenodd" d="M610.15 81V60.5545C608.761 56.9705 608 53.0742 608 49C608 31.3269 622.327 17 640 17C657.673 17 672 31.3269 672 49C672 53.0742 671.239 56.9705 669.85 60.5545V81H640H610.15ZM623.752 59.2107H631.012L632.978 57.587C633.505 57.1515 633.83 55.9331 633.813 55.3763C633.8 54.9309 633.465 54.4177 633.299 54.2168C633.133 54.0159 632.693 53.5898 632.258 53.4928C631.714 53.3716 630.456 53.4598 629.929 53.8954L627.405 55.9797C626.608 56.638 625.088 57.9986 623.752 59.2107ZM638.827 57.8427C638.698 57.9843 638.352 58.4991 637.896 59.2107H642.006C641.55 58.4991 641.205 57.9843 641.075 57.8427C641.039 57.8032 641.004 57.7654 640.971 57.7294C640.516 57.231 640.361 57.0611 639.951 57.0611C639.541 57.0611 639.386 57.231 638.931 57.7294L638.93 57.7307C638.897 57.7663 638.863 57.8037 638.827 57.8427ZM648.844 59.2107H656.103C654.767 57.9986 653.248 56.638 652.45 55.9797L649.927 53.8954C649.399 53.4598 648.142 53.3716 647.598 53.4928C647.163 53.5898 646.722 54.0159 646.556 54.2168C646.391 54.4177 646.055 54.9309 646.042 55.3763C646.026 55.9331 646.351 57.1515 646.878 57.587L648.844 59.2107ZM634.235 28.0412C635.603 30.2885 638.398 34.8516 638.827 35.3206C638.846 35.3405 638.864 35.36 638.881 35.3791C638.898 35.3978 638.915 35.4161 638.931 35.434C639.386 35.9323 639.541 36.1023 639.951 36.1023C640.361 36.1023 640.516 35.9323 640.971 35.434L640.972 35.4336L640.973 35.4324L640.973 35.4323C641.005 35.3968 641.039 35.3595 641.075 35.3206C641.505 34.8516 644.299 30.2885 645.667 28.0412C644.964 27.7676 642.589 27.3084 639.951 27.3084C637.313 27.3084 634.939 27.7676 634.235 28.0412ZM630.52 29.3598L628.632 30.2813C629.337 31.9486 630.923 35.6432 631.626 37.0832L633.062 40.0247C633.362 40.6394 634.471 41.2399 635.016 41.3543C635.452 41.4459 636.029 41.2402 636.263 41.1259C636.498 41.0116 637.015 40.6829 637.211 40.2828C637.456 39.7826 637.665 38.5391 637.365 37.9245L635.929 34.9829C635.226 33.5429 633.288 30.0198 632.408 28.4382L630.52 29.3598ZM618.795 44.0538L618.325 46.1013C620.065 46.601 623.935 47.69 625.497 48.0485L628.688 48.7809C629.354 48.934 630.518 48.4493 630.95 48.0972C631.295 47.8156 631.498 47.2373 631.556 46.9833C631.615 46.7294 631.684 46.1205 631.496 45.7164C631.261 45.2113 630.425 44.2676 629.759 44.1145L626.568 43.3821C625.007 43.0236 621.049 42.3155 619.265 42.0063L618.795 44.0538ZM661.535 46.1013L661.065 44.0538L660.595 42.0063C658.811 42.3155 654.853 43.0236 653.291 43.3821L650.101 44.1145C649.435 44.2676 648.599 45.2113 648.364 45.7164C648.176 46.1205 648.245 46.7294 648.304 46.9833C648.362 47.2373 648.565 47.8156 648.91 48.0972C649.342 48.4493 650.506 48.934 651.172 48.7809L654.363 48.0485C655.925 47.69 659.795 46.601 661.535 46.1013ZM649.312 29.3598L651.199 30.2813C650.494 31.9486 648.908 35.6432 648.205 37.0832L646.769 40.0247C646.469 40.6394 645.361 41.2399 644.816 41.3543C644.38 41.4459 643.802 41.2402 643.568 41.1259C643.334 41.0116 642.817 40.6829 642.62 40.2828C642.375 39.7826 642.167 38.5391 642.467 37.9245L643.903 34.9829C644.606 33.5429 646.543 30.0198 647.424 28.4382L649.312 29.3598ZM620.005 40.2643C622.614 40.5981 627.924 41.2627 628.558 41.2195C628.61 41.216 628.659 41.2127 628.706 41.2096L628.708 41.2095L628.711 41.2093L628.712 41.2093C629.385 41.1649 629.615 41.1498 629.87 40.8294C630.126 40.509 630.09 40.2818 629.985 39.6153C629.977 39.5671 629.969 39.5166 629.961 39.4636C629.863 38.835 628.042 33.8036 627.14 31.3322C626.487 31.7111 624.646 33.2796 623 35.3408C621.353 37.4021 620.23 39.5438 620.005 40.2643ZM651.307 41.2195C651.942 41.2627 657.251 40.5981 659.861 40.2643C659.635 39.5438 658.512 37.4021 656.866 35.3408C655.219 33.2796 653.378 31.7111 652.725 31.3322C651.823 33.8036 650.002 38.835 649.904 39.4636C649.901 39.487 649.897 39.51 649.893 39.5324C649.889 39.557 649.886 39.581 649.882 39.6045L649.882 39.6072L649.881 39.6115L649.88 39.6153C649.775 40.2818 649.739 40.509 649.995 40.8294C650.251 41.1498 650.48 41.1649 651.154 41.2093C651.202 41.2125 651.253 41.2158 651.307 41.2195ZM661.671 47.8773C659.187 48.7442 654.14 50.5209 653.591 50.843C653.545 50.8702 653.501 50.896 653.458 50.9206C652.876 51.261 652.677 51.3771 652.591 51.778C652.505 52.179 652.639 52.3662 653.031 52.9154L653.034 52.9189C653.061 52.9576 653.09 52.9981 653.12 53.0405C653.489 53.5591 657.365 57.2474 659.276 59.0558C659.691 58.4252 660.637 56.1997 661.19 53.62C661.743 51.0404 661.791 48.6225 661.671 47.8773ZM626.274 50.843C625.726 50.5209 620.678 48.7442 618.194 47.8773C618.074 48.6225 618.123 51.0404 618.675 53.62C619.228 56.1997 620.174 58.4252 620.589 59.0558C622.5 57.2474 626.376 53.5591 626.745 53.0405C626.755 53.0261 626.765 53.012 626.775 52.9981C626.795 52.9704 626.814 52.9437 626.833 52.9177L626.834 52.9154C627.226 52.3662 627.36 52.179 627.274 51.778C627.188 51.3771 626.989 51.261 626.407 50.9206L626.36 50.8929C626.332 50.8768 626.304 50.8602 626.274 50.843ZM643.86 48.9511C643.86 51.1097 642.11 52.8595 639.951 52.8595C637.793 52.8595 636.043 51.1097 636.043 48.9511C636.043 46.7926 637.793 45.0427 639.951 45.0427C642.11 45.0427 643.86 46.7926 643.86 48.9511ZM660.763 61.5557H661.447C661.447 61.7186 661.574 62.0443 662.082 62.0443C662.591 62.0443 662.652 61.7186 662.62 61.5557H663.304C663.336 61.914 663.138 62.6305 662.082 62.6305C661.027 62.6305 660.763 61.914 660.763 61.5557ZM659.786 63.1191H658.809V68.2977H659.591H659.786H660.177L664.379 64.1939H664.476V68.2977H665.453V63.1191H664.818H664.476H664.281L660.079 67.2229H659.786V63.1191ZM624.708 63.1191H625.685V67.2229H625.881L630.082 63.1191H630.473H630.62H631.45V68.2977H630.473V64.1939H630.18L625.979 68.2977H625.685H625.392H624.708V63.1191ZM658.76 73.0855H659.786V72.8901C659.786 72.4584 660.136 72.1084 660.568 72.1084H664.476C664.854 72.1084 665.16 72.4146 665.16 72.7924V73.0855C665.16 73.4632 664.854 73.7695 664.476 73.7695H660.47V74.7466H664.476C664.854 74.7466 665.16 75.0528 665.16 75.4305V75.8214C665.16 76.1991 664.854 76.5053 664.476 76.5053H660.568C660.136 76.5053 659.786 76.1554 659.786 75.7237V75.4794H658.76V76.1145C658.76 76.816 659.329 77.3847 660.031 77.3847H665.014C665.715 77.3847 666.284 76.8161 666.284 76.1146V75.3328C666.284 74.3557 665.16 74.2092 665.16 74.2092C665.16 74.2092 666.284 74.0137 666.284 73.0855V72.4015C666.284 71.7 665.715 71.1313 665.014 71.1313H660.031C659.329 71.1313 658.76 71.7 658.76 72.4015V73.0855ZM622.656 72.1084H621.777V77.3847H622.461H622.656H627.835V76.6031H622.656V75.1374H627.835V74.3557H622.656V72.8901H627.835V72.1084H622.656ZM613.472 72.1084H614.351V76.6031H619.139V72.1084H620.018V76.6031H620.605V77.0916V77.3847V78.1664H619.627V77.3847H619.139H614.351H613.863H613.472V72.1084ZM633.795 63.1191H632.818V68.2977H633.795V66.0504H638.485V68.2977H639.463V63.1191H638.485V65.2687H633.795V63.1191ZM629.301 72.1084H630.278V74.258H634.968V72.1084H635.945V77.3847H634.968V75.1374H630.278V77.3847H629.301V72.1084ZM637.215 72.8901V72.1084H639.951H640.928H643.86V72.8901H640.928V77.3847H639.951V72.8901H637.215ZM640.831 63.1191H641.808V65.2687H646.498V63.1191H647.475V68.2977H646.498V66.0504H641.808V68.2977H640.831V63.1191ZM657.344 63.1191H656.366V68.2977H657.344V63.1191ZM614.351 63.1191H615.231V67.516H618.357V63.1191H619.237V67.516H622.363V63.1191H623.243V68.2977H622.559H622.363H619.237H618.357H615.231H614.351V67.516V63.1191ZM649.82 63.1191H648.843V68.2977H649.82V68.2782C649.883 68.291 649.948 68.2977 650.015 68.2977H654.315C654.854 68.2977 655.292 67.8602 655.292 67.3206V65.171C655.292 64.6314 654.854 64.1939 654.315 64.1939H650.015C649.948 64.1939 649.883 64.2006 649.82 64.2134V63.1191ZM649.82 64.9756V67.516H653.924C654.14 67.516 654.315 67.341 654.315 67.1252V65.3664C654.315 65.1506 654.14 64.9756 653.924 64.9756H649.82ZM645.13 77.3847H646.107V76.1927C646.17 76.2055 646.235 76.2122 646.302 76.2122H650.602C651.141 76.2122 651.579 75.7747 651.579 75.2351V73.0855C651.579 72.5459 651.141 72.1084 650.602 72.1084H646.302C646.235 72.1084 646.17 72.1151 646.107 72.1279V72.1084H645.13V77.3847ZM646.107 72.8901V75.4305H650.211C650.427 75.4305 650.602 75.2555 650.602 75.0397V73.2809C650.602 73.0651 650.427 72.8901 650.211 72.8901H646.107ZM657.246 71.229H654.608V72.1084H656.171V77.3847H657.246V72.1084V71.5221V71.229Z" fill="#1A1E29"/>
</svg>
