<svg width="97" height="96" viewBox="0 0 97 96" fill="none" xmlns="http://www.w3.org/2000/svg">
<path fill-rule="evenodd" clip-rule="evenodd" d="M39.379 20.5816L63.7662 19.7678C64.0287 19.8466 64.3612 19.9253 64.7462 20.0129V11.1925C64.7462 11.1415 64.7665 11.0925 64.8026 11.0564C64.8387 11.0203 64.8877 11 64.9387 11C64.9898 11 65.0387 11.0203 65.0748 11.0564C65.1109 11.0925 65.1312 11.1415 65.1312 11.1925V20.1441C67.4588 20.7216 71.0202 21.8504 71.0814 25.6568L71.2827 38.4236L63.5562 33.8734L62.9786 61.4632L57.8772 61.7082C56.1971 56.073 52.1895 50.7878 45.3029 53.7454C40.7353 55.7055 34.0938 63.8258 34.0938 63.8258C34.9124 63.0884 35.8746 62.5284 36.9201 62.1808C36.9201 62.1808 42.8616 55.3467 46.2042 54.3054C52.942 52.2579 55.3746 56.0555 57.7459 61.6907H57.0372L58.0697 63.5633L71.6502 62.137L71.799 71.8674L72.499 71.7011L72.3503 61.927L69.9527 62.1808V61.122L63.9412 61.4107L64.0374 34.6609L71.274 38.5636L71.6327 60.8332H72.3415V58.9081H72.6215V57.3418L72.3677 28.4657H72.1665L72.0527 25.0443C72.0547 24.1733 71.8185 23.3184 71.3697 22.5719C70.9209 21.8255 70.2766 21.2159 69.5064 20.8091H75.0541L97 42.2737V60.5794L95.2499 60.5182C95.9587 62.6533 95.1099 68.2535 94.5586 68.586C94.0073 68.9185 89.7984 69.3823 89.1947 68.656C88.5909 67.9297 88.5821 65.7946 88.5821 65.7946L82.0631 66.2847L80.6281 67.0109C80.6981 69.9861 80.1731 72.2086 78.983 73.3724C77.9942 74.3437 76.6204 74.4925 74.1003 74.65C71.5802 74.8075 69.9964 74.0375 69.9264 72.4186L57.6759 75.35C57.1947 71.2374 57.9209 65.6021 54.8933 61.192C53.5195 59.1881 50.9557 61.0082 49.4244 66.9234C46.003 67.1247 39.7027 67.3347 32.0462 67.361C33.1545 62.434 33.9292 57.4379 34.365 52.4066C34.5488 49.939 33.2975 48.609 31.0224 48.6265L10.7478 48.7752C10.0171 48.7871 9.29317 48.9171 8.60401 49.1602C8.95402 46.8414 16.2868 42.3787 18.7894 42.3612C18.8682 42.125 18.9557 41.8975 19.0344 41.6525C29.8498 40.3661 52.0407 40.3836 53.3183 41.4774C54.7358 36.6823 55.8909 31.5808 57.2122 32.0796C57.2122 32.0796 57.7022 32.3508 55.8033 31.4671C53.9045 30.5833 37.4276 31.2745 27.951 31.8433C25.3022 31.9191 22.666 32.2384 20.0757 32.7971C20.6882 31.7383 20.7932 31.047 22.0358 30.3733C23.8893 29.4044 25.8597 28.678 27.8985 28.2119V14.0539C27.8985 14.0028 27.9188 13.9538 27.9549 13.9177C27.991 13.8816 28.04 13.8614 28.091 13.8614C28.1421 13.8614 28.191 13.8816 28.2271 13.9177C28.2632 13.9538 28.2835 14.0028 28.2835 14.0539V28.1244C28.5985 28.0544 28.896 27.9844 29.1586 27.9319C32.5274 25.4906 31.9937 20.8529 39.2477 20.6166L39.379 20.5816ZM50.7544 31.8346L53.0207 31.7821C52.3884 32.2055 51.8616 32.7683 51.4807 33.4271H48.3568L48.5231 32.9021C48.8906 31.7121 49.8706 31.8521 50.7982 31.8346H50.7544ZM51.0169 34.2934C50.1331 36.3322 49.6781 38.7998 49.1268 40.6374C48.1743 40.4025 47.1874 40.3403 46.213 40.4537L48.1293 34.3284H51.0869L51.0169 34.2934ZM93.6398 62.7758C93.8822 63.4567 93.966 64.1839 93.8848 64.9021C93.9664 65.6232 93.8826 66.3533 93.6398 67.0372C93.402 66.3522 93.3184 65.6232 93.3948 64.9021C93.3188 64.1839 93.4025 63.4578 93.6398 62.7758ZM94.6286 62.6708C94.8709 63.3517 94.9547 64.0789 94.8736 64.7971C94.9592 65.5268 94.8754 66.2664 94.6286 66.9584C94.3908 66.2734 94.3072 65.5444 94.3836 64.8234C94.3036 64.0965 94.3874 63.361 94.6286 62.6708ZM75.8941 64.5521C76.3754 64.5521 76.7692 66.4334 76.7167 68.7523C76.6642 71.0711 76.2792 72.9437 75.8416 72.9437C75.4041 72.9437 74.9666 71.0623 74.9666 68.7523C74.9666 66.4422 75.4129 64.5521 75.8941 64.5521ZM79.0355 63.9921C79.5168 63.9921 79.9105 65.6896 79.8668 67.7722C79.7968 72.7424 78.0467 72.7687 78.1167 67.7722C78.1167 65.6896 78.5542 63.9921 79.0355 63.9921ZM2.16376 75.7088C2.25583 76.0166 2.41847 76.2987 2.63873 76.5327C2.859 76.7666 3.13081 76.9459 3.43256 77.0563C4.10703 77.2029 4.79142 77.2994 5.48014 77.3451C5.42314 78.7617 5.74964 80.1675 6.42517 81.414C7.42271 83.2516 9.20778 83.0941 12.3754 83.0941C15.543 83.0941 17.8706 80.3027 17.7481 78.5964C17.7481 78.4564 17.7481 78.3339 17.7481 78.2289C27.5922 78.8326 39.3177 79.3752 41.8203 79.2177L43.8766 79.1039C43.8066 81.0115 44.1216 83.0766 44.4367 83.4791C44.8152 84.021 45.3194 84.4633 45.9061 84.7681C46.4927 85.0728 47.1444 85.231 47.8055 85.2291C49.2577 85.4205 50.7286 85.4205 52.1807 85.2291C54.6046 84.8966 55.7596 80.1452 56.2146 77.0388C56.8621 72.6637 55.5846 65.4446 54.3683 64.2546C53.7129 63.5353 52.8286 63.0653 51.8657 62.9245C51.0826 64.3134 50.4937 65.8032 50.1156 67.3522C49.1968 67.4047 48.0768 67.466 46.773 67.5185L46.6155 67.8247C41.9691 68.0172 34.8725 68.1747 26.7697 68.1047C19.3582 68.0347 11.1154 67.7722 3.1438 67.1684C2.60538 67.1128 2.08721 66.9331 1.62999 66.6434C1.4292 66.7318 1.21016 66.7708 0.991211 66.7572V74.8337C2.05 76.1725 43.4566 78.0364 48.1468 76.2076C48.284 73.5069 48.6322 70.8211 49.1881 68.1747H49.9144C49.291 70.975 48.9076 73.8234 48.7681 76.6888C48.1186 76.9026 47.4459 77.0377 46.7642 77.0913C46.4142 77.1438 46.003 77.1876 45.5567 77.2313L44.0866 77.3276C37.9614 77.7039 26.7785 77.4676 17.3368 76.9951H17.2756C12.22 76.8188 7.17641 76.3895 2.16376 75.7088ZM52.4782 67.3697C53.8433 67.3697 54.9458 70.5286 54.9458 74.4225C54.9458 78.3164 53.8433 81.4753 52.4782 81.4753C51.1132 81.4753 50.0019 78.3339 50.0019 74.405C50.0019 70.4761 51.1132 67.3522 52.4695 67.3522L52.4782 67.3697ZM16.3568 37.391V42.265C15.1632 42.7502 14.0128 43.3356 12.9179 44.015V39.6399C12.8356 39.1704 12.9212 38.6869 13.1596 38.2741C13.3979 37.8614 13.7739 37.5457 14.2217 37.3823L16.3568 37.391ZM69.7339 58.3919H69.5939L67.4501 58.4794C67.0738 58.4794 66.8375 57.9018 66.8375 57.4818V51.6628C66.575 51.6628 66.3738 51.8816 66.3738 52.2491V58.9869C66.3738 59.4069 66.61 59.9932 66.9863 59.9844L69.1214 59.8969C69.4976 59.8969 69.7339 59.7657 69.7339 59.3369V58.3831V58.3919ZM69.7339 46.5701H69.5939L67.5026 46.1151C67.1263 46.0364 66.89 45.3976 66.89 44.9688V39.2636C66.6275 39.1849 66.4263 39.3686 66.4263 39.7361V46.4651C66.4263 46.8939 66.6625 47.5327 67.0388 47.6114L69.1739 48.0314C69.5501 48.1102 69.7864 48.0314 69.7864 47.6202V46.5614L69.7339 46.5701ZM19.4194 49.8865C20.4082 49.8865 21.1695 50.3328 21.1695 50.8841C21.1695 51.4353 20.3732 51.8903 19.4194 51.8903C18.4656 51.8903 17.6694 51.4441 17.6694 50.8841C17.6694 50.324 18.4656 49.8865 19.4194 49.8865ZM9.58405 65.6984H12.7867L13.2504 51.0941H10.8966C10.3314 51.0673 9.77799 51.2614 9.35339 51.6354C8.92879 52.0094 8.66632 52.5339 8.62151 53.0979C8.62151 57.0093 8.69151 60.1944 8.69151 64.1058C8.79652 65.2171 9.09403 65.7509 9.56655 65.6984H9.58405ZM13.5567 65.6984H18.7457L19.1569 52.3279C17.9844 52.2491 17.0568 51.7416 16.8818 51.0941H14.003L13.5567 65.6984ZM19.5157 65.6984H25.0634L25.5009 51.0941H22.0008C21.8345 51.7066 21.0032 52.1879 19.9445 52.3016L19.5332 65.6984H19.5157ZM25.8334 65.6984H29.2023C30.3836 65.6984 30.1298 65.8296 30.3049 64.6133C30.8532 60.6699 31.4074 56.7205 31.9674 52.7654C31.9245 52.3597 31.7525 51.9784 31.4769 51.6776C31.2013 51.3768 30.8365 51.1723 30.4361 51.0941H26.2797L25.8334 65.6984ZM64.2124 29.2182H65.2012C65.2708 29.2182 65.3376 29.2459 65.3868 29.2951C65.4361 29.3443 65.4637 29.4111 65.4637 29.4807V30.8633C65.4615 30.9322 65.4332 30.9977 65.3844 31.0465C65.3357 31.0952 65.2701 31.1236 65.2012 31.1258H64.2124C64.1428 31.1258 64.076 31.0981 64.0268 31.0489C63.9776 30.9997 63.9499 30.9329 63.9499 30.8633V29.4807C63.9487 29.4459 63.9547 29.4112 63.9674 29.3788C63.9802 29.3464 63.9995 29.317 64.0241 29.2924C64.0487 29.2678 64.0781 29.2485 64.1105 29.2357C64.1429 29.2229 64.1776 29.217 64.2124 29.2182ZM6.18891 71.9024L4.26384 71.8061C4.18896 71.8013 4.11389 71.812 4.04338 71.8376C3.97286 71.8633 3.90843 71.9033 3.85415 71.9551C3.79987 72.0069 3.75693 72.0694 3.72805 72.1386C3.69916 72.2079 3.68495 72.2824 3.68632 72.3574V74.2387C3.68606 74.3953 3.74577 74.546 3.85317 74.6599C3.96058 74.7738 4.10753 74.8423 4.26384 74.8512L6.18891 74.9562C6.2642 74.961 6.33966 74.9503 6.41064 74.9248C6.48162 74.8992 6.5466 74.8594 6.60155 74.8077C6.65651 74.756 6.70027 74.6936 6.73014 74.6244C6.76001 74.5551 6.77534 74.4804 6.77519 74.405V72.5237C6.77337 72.3654 6.71205 72.2136 6.60342 72.0985C6.49479 71.9834 6.34681 71.9134 6.18891 71.9024ZM36.9814 73.0137H33.21C33.0537 73.016 32.9046 73.0797 32.7949 73.191C32.6852 73.3024 32.6237 73.4524 32.6237 73.6087V75.49C32.626 75.644 32.6888 75.7909 32.7985 75.8989C32.9082 76.007 33.056 76.0676 33.21 76.0675H36.9814C37.0584 76.0675 37.1346 76.0524 37.2057 76.0229C37.2768 75.9935 37.3415 75.9503 37.3959 75.8958C37.4504 75.8414 37.4935 75.7768 37.523 75.7056C37.5525 75.6345 37.5676 75.5583 37.5676 75.4813V73.5912C37.5676 73.5146 37.5524 73.4388 37.5229 73.3681C37.4933 73.2975 37.45 73.2334 37.3954 73.1797C37.3408 73.126 37.2761 73.0836 37.2051 73.0551C37.134 73.0266 37.0579 73.0125 36.9814 73.0137ZM12.4279 71.9549L8.81402 71.7886C8.72764 71.7838 8.6412 71.7968 8.56008 71.8269C8.47896 71.8569 8.40489 71.9034 8.3425 71.9633C8.28011 72.0232 8.23073 72.0954 8.19744 72.1752C8.16415 72.2551 8.14766 72.3409 8.14899 72.4274V74.5625C8.15086 74.7416 8.22049 74.9134 8.34387 75.0433C8.46724 75.1731 8.63522 75.2515 8.81402 75.2625L12.4279 75.4288C12.5143 75.4336 12.6007 75.4206 12.6818 75.3905C12.763 75.3605 12.837 75.314 12.8994 75.2541C12.9618 75.1942 13.0112 75.122 13.0445 75.0422C13.0778 74.9623 13.0943 74.8765 13.0929 74.79V72.6549C13.0911 72.4758 13.0214 72.304 12.8981 72.1741C12.7747 72.0443 12.6067 71.9659 12.4279 71.9549ZM25.9209 72.7162L29.9198 72.8037C30.097 72.806 30.2662 72.878 30.3906 73.0041C30.5151 73.1302 30.5849 73.3002 30.5849 73.4774V75.6213C30.5849 75.7078 30.5676 75.7935 30.534 75.8732C30.5003 75.9529 30.4511 76.0251 30.3891 76.0854C30.3271 76.1458 30.2536 76.1931 30.173 76.2246C30.0924 76.2561 30.0063 76.2711 29.9198 76.2688L25.9209 76.1813C25.7438 76.179 25.5746 76.107 25.4501 75.9809C25.3257 75.8548 25.2559 75.6847 25.2559 75.5075V73.3637C25.257 73.2775 25.2752 73.1924 25.3092 73.1132C25.3432 73.034 25.3925 72.9623 25.4543 72.9022C25.5161 72.842 25.589 72.7947 25.6691 72.7628C25.7492 72.7308 25.8347 72.715 25.9209 72.7162ZM14.948 72.3836L23.0246 72.5499C23.1639 72.5544 23.2962 72.6123 23.3939 72.7117C23.4917 72.8111 23.5474 72.9443 23.5496 73.0837V75.3675C23.5496 75.4357 23.5359 75.5031 23.5094 75.5659C23.4828 75.6286 23.4438 75.6854 23.3948 75.7327C23.3458 75.7801 23.2878 75.8171 23.2242 75.8415C23.1606 75.866 23.0927 75.8774 23.0246 75.875L14.948 75.7088C14.8087 75.7043 14.6764 75.6464 14.5787 75.547C14.4809 75.4476 14.4252 75.3144 14.423 75.175V72.8912C14.4229 72.823 14.4366 72.7556 14.4632 72.6928C14.4898 72.6301 14.5288 72.5733 14.5778 72.526C14.6268 72.4786 14.6848 72.4416 14.7484 72.4171C14.812 72.3927 14.8799 72.3813 14.948 72.3836ZM59.3472 36.6735H62.2524C62.6724 36.726 62.8299 37.2073 62.7161 37.7935V45.0826C62.6636 45.5376 62.6111 45.8001 61.9898 45.8701H60.6948C60.5355 46.4819 60.2359 47.0481 59.8198 47.5239L56.3196 50.149C55.8844 49.9744 55.5238 49.6533 55.3001 49.2411C55.0765 48.8289 55.0038 48.3515 55.0946 47.8914C56.5296 47.4889 59.0147 47.0164 59.321 46.6314L59.9073 45.8439L59.0322 45.7651C58.7697 45.5814 58.726 45.2838 58.5685 44.8901L58.7522 37.3035C58.5772 36.8223 59.1197 36.6473 59.3647 36.6735H59.3472ZM34.3913 66.2234C34.3913 66.2234 34.6013 63.9133 36.3163 63.3708C38.0314 62.8283 47.4818 62.4345 47.4818 62.4345C47.4818 62.4345 48.3568 62.4345 48.173 63.5458C47.9893 64.6571 47.753 66.3197 46.493 66.3197C45.2329 66.3197 35.6776 66.7047 34.3913 66.2234ZM31.4862 67.361C29.9636 67.361 28.3973 67.361 26.7785 67.361C23.7683 67.361 20.6532 67.2734 17.3981 67.1684C22.097 67.2384 26.8047 67.291 31.4862 67.3785V67.361ZM8.17524 66.7397C6.52143 66.6434 4.86761 66.5297 3.2313 66.4072C2.96291 66.3805 2.70023 66.3126 2.45252 66.2059C2.45252 66.0047 2.45252 65.8034 2.45252 65.6021L6.82769 65.6634C6.9227 64.9068 6.86317 64.1387 6.65268 63.4058C6.25017 62.3645 5.06887 62.2333 4.37759 62.102C4.11508 62.0582 3.59881 62.0232 3.06504 61.9882C3.85305 59.8813 5.08906 57.9706 6.68768 56.388C6.68768 56.1955 6.74894 56.003 6.76644 55.8018L8.17524 66.7397Z" fill="white"/>
</svg>
