<svg width="97" height="96" viewBox="0 0 97 96" fill="none" xmlns="http://www.w3.org/2000/svg">
<path d="M90.9807 16.501C92.4649 13.1888 83.2158 13.1888 79.98 13.1888C76.7441 13.1888 67.0766 17.5669 67.0766 17.5669C67.9133 21.3338 67.6223 24.1768 67.6223 24.1768C66.6074 15.0913 62.7495 13.8236 61.3289 13.7726C60.3722 13.7381 51.7687 14.5529 46.232 15.0913L46.5776 15.1477C46.8783 15.0993 47.1824 15.075 47.487 15.075C49.506 15.075 50.983 16.1517 51.5523 17.9852L60.625 21.4848C60.8593 21.5755 61.06 21.7361 61.1998 21.945C61.4566 22.3646 61.5981 22.8446 61.6099 23.3365C61.6218 23.8283 61.5035 24.3146 61.2671 24.7461C61.0979 25.068 60.5868 26.0484 59.3427 26.0484C58.8692 26.0267 58.4023 25.9284 57.9603 25.7574C57.9789 25.8168 57.9929 25.8777 58.0021 25.9393C58.0446 26.182 58.0353 26.431 57.9748 26.6698C57.9143 26.9087 57.804 27.1321 57.6511 27.3253C57.4891 27.513 57.2809 27.6553 57.0472 27.7382C60.2667 29.8336 63.0332 32.6001 64.8248 34.6027C65.7325 35.5939 66.6956 36.5327 67.7096 37.4148C69.5485 39.0718 71.1655 40.5305 71.884 42.9224C72.4206 44.7104 72.4551 47.0204 71.7021 50.329C70.3052 56.4605 71.6748 59.0288 72.3278 59.8491C72.8244 60.4694 73.4192 60.784 74.0958 60.784C74.383 60.7857 74.6685 60.7383 74.9398 60.644C75.0635 60.6003 75.1781 60.5549 75.289 60.5094C75.5719 60.1047 75.8236 59.679 76.042 59.2362C76.2239 58.8597 76.4058 58.4613 76.5604 58.0448C77.4699 55.6511 77.9155 52.6372 78.1629 49.3559C78.4357 45.7326 77.3898 41.6292 76.8787 38.1423C76.3021 34.2699 76.3949 31.1595 79.6689 30.3174C85.0438 28.9405 88.4433 22.145 90.2331 18.1689C90.4896 17.5978 90.7133 17.0776 90.9061 16.6519C90.9461 16.601 90.9589 16.5501 90.9807 16.501ZM73.883 29.1005C69.2775 31.4215 67.8679 26.6105 67.8679 26.6105C70.558 29.6789 72.2842 28.6913 73.7302 28.2238C81.8807 25.5955 81.8753 21.332 81.8134 20.6044C81.8134 20.5681 81.8134 20.5335 81.8007 20.4971C81.8007 20.4971 81.8007 20.5353 81.8134 20.6044C82.5101 25.8374 78.4648 26.7942 73.8903 29.1005H73.883ZM40.266 19.4767C42.696 20.4735 46.814 22.1232 48.2346 22.4379C50.29 22.8944 53.9441 24.4551 55.4666 25.8938C56.989 27.3326 56.798 26.1212 56.798 26.1212C54.9282 23.4547 50.7138 21.8304 50.2227 21.6485C50.7847 21.854 56.5634 23.9767 57.9021 24.446C59.3099 24.9407 59.7301 25.0553 60.1866 24.1804C60.3213 23.9424 60.3921 23.6736 60.3921 23.4001C60.3921 23.1266 60.3213 22.8578 60.1866 22.6198L50.5173 18.8983C49.9462 15.5479 46.5976 16.3864 46.5976 16.3864L44.082 15.9662L43.7183 16.2682C42.5101 17.2742 41.3576 18.3453 40.266 19.4767ZM17.4005 6.75528C14.6212 6.45153 11.2344 7.98668 10.5742 9.25446C9.91389 10.5222 13.0606 12.9887 15.1414 13.2269C15.5725 13.2761 15.9581 13.3052 16.3001 13.3197C16.9605 13.368 17.6243 13.3369 18.2772 13.2269C18.2772 13.2269 18.5064 12.9305 18.8411 12.5267C19.4595 11.7773 20.4363 10.655 20.9783 10.3331C21.8168 9.83833 20.1798 7.06086 17.4005 6.75528ZM45.9028 3.79229C46.2429 3.87596 46.5885 3.96145 46.9395 4.05239C46.9395 4.05239 46.5867 3.92689 45.9682 3.7359C43.4891 2.97196 36.7227 1.14396 31.0278 1.99703C31.0278 1.99703 24.7598 5.75307 21.5112 9.7874C21.5112 9.7874 26.2695 5.00368 31.1805 2.37718C31.1805 2.37718 36.6573 1.55321 45.9028 3.79229ZM25.7857 49.8106C26.4987 53.2265 25.3819 59.5217 25.3437 61.0787C25.2927 63.1595 27.9902 64.9384 27.9902 64.9384L27.4245 67.2794C27.1213 67.5123 26.8683 67.8041 26.6807 68.1373C26.4932 68.4705 26.3749 68.8382 26.3332 69.2183C26.1513 70.6443 26.9334 71.9212 28.0884 72.0722C29.2434 72.2231 30.3275 71.1882 30.513 69.7622C30.6043 69.114 30.4763 68.4539 30.1492 67.8869L32.5356 58.0211L33.2959 58.203L34.0053 55.2673L34.9238 51.5495L36.5827 44.6922C35.4913 43.7209 34.3418 42.766 33.1413 41.8711L32.2319 45.6035C30.9648 44.624 29.5832 43.8025 28.1175 43.157L28.9142 39.3264C28.9142 39.3264 27.2135 38.1423 25.8493 37.8113L24.8489 42.1057C15.778 40.1977 8.59701 46.7767 9.51192 46.8567C9.73564 46.8749 10.3031 46.8858 11.0944 46.8949C14.4539 46.9349 21.8677 46.9604 24.3324 47.6225C25.1018 47.8298 25.5456 48.6556 25.7857 49.807V49.8106ZM18.3936 94.6739C29.4435 95.4015 39.1528 84.6281 40.0823 70.6007C40.5261 63.8962 38.8836 57.6646 35.8424 52.9046L34.9238 56.7352C36.8501 60.2638 37.8632 64.8329 37.5376 69.7494C36.8392 80.2991 30.2511 88.4441 22.8245 87.9512C15.3979 87.4583 9.943 78.5129 10.6378 67.9687C11.3108 57.8138 17.4442 49.8834 24.5288 49.7488C24.3033 48.9102 24.025 48.8029 24.0195 48.8011C21.8932 48.2336 15.1578 48.1645 11.9201 48.1299C10.5978 48.1154 9.88479 48.1063 9.51737 48.0845C4.29711 52.388 0.626563 59.5927 0.0717963 67.9505C-0.857664 81.9761 7.3456 93.9409 18.3936 94.6739ZM48.6911 58.1812L40.155 79.0986C46.7667 79.0986 67.8133 72.0976 72.3897 70.6389L72.4442 70.6225C75.0289 69.7931 78.0319 66.5209 80.1655 63.5542C81.0891 62.299 81.9097 60.9711 82.6192 59.5836C82.7814 59.2691 82.9089 58.938 82.9993 58.5959C83.0142 58.5266 83.0216 58.4558 83.0212 58.3849C83.0212 57.2936 80.8749 57.3481 79.5343 57.5555C78.9268 57.6501 78.483 57.7756 78.483 57.8356C78.483 57.8956 78.483 57.9829 78.483 58.1485C78.4733 58.5625 78.3876 58.9713 78.2302 59.3544C77.9428 60.0619 77.3335 60.875 76.0602 61.4916C75.8235 61.6057 75.5806 61.7065 75.3327 61.7935C74.8672 61.9629 74.3719 62.0347 73.8775 62.0045C71.0091 61.8227 68.7173 57.9138 70.5035 50.0707C71.0491 47.7061 71.1619 45.9109 70.96 44.4757C70.3889 40.3796 67.2312 39.1482 63.9063 35.4285C59.4136 30.4029 53.8059 26.1139 48.6802 25.9702C43.5546 25.8265 38.2252 23.8384 37.5158 21.7576C37.3812 21.3575 37.6704 20.7299 38.2343 19.9751C38.4653 19.6677 38.7399 19.3403 39.0509 18.9965C40.1341 17.8386 41.2844 16.7453 42.4959 15.7225L42.8252 15.4424C43.1235 15.1877 43.4236 14.9367 43.7219 14.6912C43.9856 14.4747 44.2494 14.2601 44.5095 14.0527C46.5958 12.3793 48.4656 11.0461 48.984 10.7969C50.3554 10.1366 51.0648 9.42544 53.9587 9.37451C56.8526 9.32358 67.4077 5.82219 59.2335 1.96429C51.0594 -1.89361 44.4786 7.02266 43.8692 7.73204C43.2599 8.44141 18.8975 18.6946 17.2223 17.8833C15.547 17.0721 18.1317 13.518 18.1317 13.518C15.5943 15.2441 7.65118 21.1446 7.23283 25.9793C6.81448 30.8139 15.3906 40.5706 15.3906 40.5706L16.0509 40.3668C13.2643 36.9673 15.7253 35.725 15.7253 35.725C21.5112 34.1644 27.3208 36.4198 32.3701 39.8521C32.7339 40.0946 33.0904 40.3456 33.4396 40.6051C34.6437 41.48 35.8042 42.424 36.8955 43.3699C37.2472 43.673 37.591 43.9798 37.9269 44.2902C42.656 48.6101 46.1119 53.0955 47.2433 54.2942C49.8389 57.0389 48.6911 58.1812 48.6911 58.1812ZM15.0159 27.7218C15.0159 27.7218 10.2577 30.6484 9.90116 30.3101C7.24192 27.7873 8.99171 24.3732 8.99171 24.3732L15.0159 27.7218ZM30.9768 29.9554C30.6731 31.5797 27.399 30.9686 16.1327 27.7218L29.709 23.4074C29.709 23.4074 31.286 28.3384 30.9768 29.9627V29.9554ZM52.931 25.6173C51.374 24.7443 49.3241 23.9294 47.9618 23.6275C46.3539 23.2637 41.812 21.4448 39.4038 20.4444C39.1295 20.7518 38.9021 21.0981 38.729 21.472C39.3893 22.7071 43.7619 24.5878 48.7202 24.7352C50.1628 24.7954 51.5856 25.0935 52.931 25.6173ZM94.6221 18.0816C93.728 17.6867 92.7384 17.5603 91.7737 17.7178C90.013 21.7049 86.3807 29.8572 79.9781 31.496C77.8373 32.0417 77.5299 33.8606 78.0319 37.5857C78.1556 38.4952 78.3284 39.5392 78.5339 40.7033C79.0505 43.5972 79.5816 46.5911 79.367 49.4341C79.1487 52.3443 78.8049 54.6562 78.2993 56.5642C78.5542 56.4852 78.8143 56.4244 79.0778 56.3823C79.2033 56.3605 79.3706 56.3332 79.5671 56.3059C80.0493 56.2394 80.5354 56.2047 81.0222 56.2022C82.3846 56.2022 83.3013 56.5187 83.8233 57.1662C84.1136 57.5253 84.2624 57.9782 84.2417 58.4395L86.4589 58.5559C86.6644 58.9379 86.9373 59.1725 87.2356 59.1725C87.7194 59.1725 88.1323 58.5613 88.3069 57.6937C88.4429 57.0014 88.423 56.2875 88.2487 55.6038C88.0486 54.8762 87.6703 54.3779 87.2356 54.3779C86.97 54.3779 86.7263 54.5598 86.5298 54.8726C85.1038 54.356 81.0004 52.5826 81.1259 49.3522C81.135 49.134 81.1404 48.8975 81.1422 48.6447C81.1768 45.6853 80.8694 40.5269 81.1331 36.8855C81.2514 35.2721 81.4806 33.9552 81.9025 33.264C83.3577 30.8776 82.9029 30.472 85.1857 30.1719C85.1857 30.1719 93.4599 23.4219 95.1333 21.9504C96.8067 20.4789 95.739 18.5945 94.6221 18.0816ZM73.1591 71.6447C75.6255 74.6314 78.8122 76.4103 82.2627 76.3448C89.833 76.2011 95.8026 67.2503 95.5953 56.3368C95.397 45.8326 89.5401 37.3547 82.3427 36.8745C82.1699 39.2955 82.2445 42.5459 82.2972 44.8213C82.3082 45.3306 82.3185 45.8157 82.3282 46.2765C83.505 44.4576 84.9638 43.3935 86.5262 43.4226C90.2531 43.4899 93.1598 49.7579 93.0215 57.4282C92.8833 65.0985 89.7475 71.2519 86.0224 71.1827C83.7087 71.1409 81.7097 68.7054 80.5656 65.0312C80.4438 65.1913 80.3219 65.3495 80.2019 65.5078C78.4303 67.7923 75.8001 70.648 73.1682 71.6502L73.1591 71.6447Z" fill="white"/>
</svg>
